<svg height="512pt" viewBox="0 0 512 512" width="512pt" xmlns="http://www.w3.org/2000/svg"><path d="m512 256c0 141.386719-114.613281 256-256 256s-256-114.613281-256-256 114.613281-256 256-256 256 114.613281 256 256zm0 0" fill="#53edf5"/><path d="m512 256c0-5.523438-.195312-11-.539062-16.4375l-80.230469-80.226562-22.046875 26.179687-74.183594-74.183594-131.570312 16.597657-122.660157 254.894531 124.050781 124.054687c16.539063 3.355469 33.652344 5.121094 51.179688 5.121094 141.386719 0 256-114.613281 256-256zm0 0" fill="#16c8f2"/><path d="m80.769531 159.335938h350.464844v223.488281h-350.464844zm0 0" fill="#fff"/><path d="m255.808594 159.335938h175.425781v223.488281h-175.425781zm0 0" fill="#dce1eb"/><path d="m177 122h28v37.335938h-28zm0 0" fill="#555a66"/><g fill="#333940"><path d="m307 122h28v37.335938h-28zm0 0"/><path d="m177 111.332031h158v21h-158zm0 0"/><path d="m255.808594 111.332031h79.191406v21h-79.191406zm0 0"/></g><path d="m306 252.746094h-31.667969v-31.664063h-36.664062v31.664063h-31.667969v36.667968h31.667969v31.667969h36.664062v-31.667969h31.667969zm0 0" fill="#ff583e"/><path d="m274.332031 252.746094v-31.664063h-18.523437v100h18.523437v-31.667969h31.667969v-36.667968zm0 0" fill="#db0404"/></svg>